<svg width="34" height="38" viewBox="0 0 34 38" fill="none" xmlns="http://www.w3.org/2000/svg">
<path d="M12.083 6.68555C12.083 6.27133 11.7472 5.93555 11.333 5.93555C10.9188 5.93555 10.583 6.27133 10.583 6.68555H12.083ZM10.583 9.72082C10.583 10.135 10.9188 10.4708 11.333 10.4708C11.7472 10.4708 12.083 10.135 12.083 9.72082H10.583ZM23.4163 6.68555C23.4163 6.27133 23.0806 5.93555 22.6663 5.93555C22.2521 5.93555 21.9163 6.27133 21.9163 6.68555H23.4163ZM21.9163 9.72082C21.9163 10.135 22.2521 10.4708 22.6663 10.4708C23.0806 10.4708 23.4163 10.135 23.4163 9.72082H21.9163ZM9.91634 18.0766C9.50213 18.0766 9.16634 18.4124 9.16634 18.8266C9.16634 19.2409 9.50213 19.5766 9.91634 19.5766V18.0766ZM10.6247 19.5766C11.0389 19.5766 11.3747 19.2409 11.3747 18.8266C11.3747 18.4124 11.0389 18.0766 10.6247 18.0766V19.5766ZM14.1663 18.0766C13.7521 18.0766 13.4163 18.4124 13.4163 18.8266C13.4163 19.2409 13.7521 19.5766 14.1663 19.5766V18.0766ZM14.8747 19.5766C15.2889 19.5766 15.6247 19.2409 15.6247 18.8266C15.6247 18.4124 15.2889 18.0766 14.8747 18.0766V19.5766ZM9.20801 8.95318H24.7913V7.45318H9.20801V8.95318ZM28.2913 12.7561V24.8972H29.7913V12.7561H28.2913ZM24.7913 28.7001H9.20801V30.2001H24.7913V28.7001ZM5.70801 24.8972V12.7561H4.20801V24.8972H5.70801ZM9.20801 28.7001C7.32281 28.7001 5.70801 27.047 5.70801 24.8972H4.20801C4.20801 27.7764 6.39879 30.2001 9.20801 30.2001V28.7001ZM28.2913 24.8972C28.2913 27.047 26.6765 28.7001 24.7913 28.7001V30.2001C27.6006 30.2001 29.7913 27.7764 29.7913 24.8972H28.2913ZM24.7913 8.95318C26.6765 8.95318 28.2913 10.6063 28.2913 12.7561H29.7913C29.7913 9.87685 27.6006 7.45318 24.7913 7.45318V8.95318ZM9.20801 7.45318C6.39879 7.45318 4.20801 9.87685 4.20801 12.7561H5.70801C5.70801 10.6063 7.32281 8.95318 9.20801 8.95318V7.45318ZM10.583 6.68555V9.72082H12.083V6.68555H10.583ZM21.9163 6.68555V9.72082H23.4163V6.68555H21.9163ZM9.91634 19.5766H10.6247V18.0766H9.91634V19.5766ZM14.1663 19.5766H14.8747V18.0766H14.1663V19.5766ZM4.95801 15.0237H29.0413V13.5237H4.95801V15.0237Z" fill="black"/>
</svg>
