<svg width="2028" height="361" viewBox="0 0 2028 361" fill="none" xmlns="http://www.w3.org/2000/svg">
<path d="M3.9314 31.1517L38.8534 60.5013V207.921V329.847H3.9314V31.1517Z" fill="#EFEFEF"/>
<path d="M3.9314 31.1517L38.8534 60.5013V207.921V329.847H3.9314V31.1517Z" fill="#EFEFEF"/>
<path d="M328.384 30.6566L297.673 59.8721V207.573V305.451L328.384 329.599V30.6566Z" fill="#EFEFEF"/>
<path d="M328.423 31.1519L328.423 67.6838L219.956 161.217L168.34 202.828L143.626 177.34L328.423 31.1519Z" fill="#EFEFEF"/>
<path d="M4.36098 30.6273L327.913 291.835L327.913 329.475L4.10702 73.3698L4.36098 30.6273Z" fill="#EFEFEF"/>
<path fill-rule="evenodd" clip-rule="evenodd" d="M498.514 329.932C548.783 329.932 589.534 290.234 589.534 241.265C589.534 192.295 548.783 152.598 498.514 152.598C448.245 152.598 407.494 192.295 407.494 241.265C407.494 290.234 448.245 329.932 498.514 329.932ZM498.413 302.107C533.088 302.107 561.198 274.829 561.198 241.18C561.198 207.53 533.088 180.252 498.413 180.252C463.737 180.252 435.627 207.53 435.627 241.18C435.627 274.829 463.737 302.107 498.413 302.107Z" fill="#EFEFEF"/>
<rect x="675.477" y="329.932" width="177.335" height="32.693" rx="13" transform="rotate(-90 675.477 329.932)" fill="#EFEFEF"/>
<path d="M714.383 194.895C713.303 195.26 712.255 195.679 711.238 196.143C705.868 198.596 687.711 192.02 687.999 186.123L688.479 176.277C688.526 175.33 688.836 174.405 689.415 173.654C704.841 153.617 737.847 156.779 755.583 161.65C757.673 162.224 759.064 164.156 759.064 166.324V188.345C759.064 191.643 755.93 194.015 752.741 193.174C740.948 190.065 732.204 188.858 714.383 194.895Z" fill="#EFEFEF"/>
<rect x="863.709" y="329.932" width="299.19" height="32.693" transform="rotate(-90 863.709 329.932)" fill="#EFEFEF"/>
<rect x="863.709" y="30.9894" width="272.441" height="32.693" fill="#EFEFEF"/>
<rect x="863.709" y="187.767" width="272.441" height="32.693" fill="#EFEFEF"/>
<rect x="863.709" y="296.744" width="272.441" height="32.693" fill="#EFEFEF"/>
<path d="M1289.17 329.437C1286.79 329.437 1284.63 328.027 1283.68 325.844L1209.43 156.299C1207.69 152.334 1210.6 147.892 1214.93 147.892H1234.49C1236.82 147.892 1238.95 149.245 1239.93 151.361L1318.8 320.906C1320.66 324.883 1317.75 329.437 1313.36 329.437L1289.17 329.437Z" fill="#EFEFEF"/>
<path d="M1319.55 329.437C1321.98 329.437 1324.18 327.962 1325.1 325.705L1394.32 156.16C1395.93 152.213 1393.03 147.892 1388.76 147.892H1369.2C1366.8 147.892 1364.64 149.321 1363.69 151.526L1290.95 321.071C1289.25 325.031 1292.15 329.437 1296.46 329.437L1319.55 329.437Z" fill="#EFEFEF"/>
<path fill-rule="evenodd" clip-rule="evenodd" d="M1638.97 288.673C1624.72 304.699 1586.95 330.428 1557.68 330.428C1525.73 330.428 1502.2 314.184 1488.71 300.278C1475.34 286.499 1465 251.264 1466.74 237.251C1466.77 236.988 1466.79 236.742 1466.79 236.476C1466.66 220.965 1473.77 192.894 1488.71 175.049C1500.65 160.792 1524.15 147.399 1557.93 148.054C1580.1 147.002 1611.29 150.695 1632.24 170.257C1642.02 179.387 1647.6 195.459 1650.77 204.586C1651.36 206.265 1651.86 207.709 1652.29 208.831C1652.38 209.065 1652.45 209.294 1652.51 209.538L1654.9 219.923L1656.76 230.557L1657.5 239.322V239.814C1657.5 242.576 1655.26 244.814 1652.5 244.814H1648.34L1507.33 246.264C1503.98 246.299 1501.58 249.561 1502.71 252.718C1508.88 270.044 1520.72 290.317 1560.41 295.298C1583.66 295.298 1602.96 283.339 1614.14 272.17C1615.85 270.455 1618.51 270.042 1620.58 271.306L1629.64 276.834L1637.74 281.784C1640.2 283.283 1640.88 286.524 1638.97 288.673ZM1509.74 223.15H1614.04C1616.81 223.15 1619.06 220.902 1618.56 218.187C1615.65 202.511 1599.47 178.743 1562.57 178.743C1533.69 178.743 1507.79 190.829 1504.99 218.15C1504.71 220.897 1506.98 223.15 1509.74 223.15Z" fill="#EFEFEF"/>
<rect x="1725.86" y="330.304" width="182.536" height="32.693" transform="rotate(-90 1725.86 330.304)" fill="#EFEFEF"/>
<rect x="1854.16" y="330.304" width="120.865" height="32.693" transform="rotate(-90 1854.16 330.304)" fill="#EFEFEF"/>
<path d="M1758.43 208.324V157.303C1767.1 152.102 1789.14 143.186 1810.07 143.186C1831 143.186 1851.43 148.016 1869.64 168.573C1884.2 185.018 1887.1 205.311 1886.73 213.402H1854.28C1853.91 204.361 1839.92 175.879 1805.86 175.631C1778.62 175.433 1762.89 197.344 1758.43 208.324Z" fill="#EFEFEF"/>
<rect x="1956.45" y="131.545" width="70.8348" height="32.693" fill="#EFEFEF"/>
<rect x="1956.45" y="330.427" width="233.309" height="32.693" transform="rotate(-90 1956.45 330.427)" fill="#EFEFEF"/>
</svg>
