<svg width="34" height="36" viewBox="0 0 34 36" fill="none" xmlns="http://www.w3.org/2000/svg">
<path d="M12.0002 6.04199C12.0002 5.62778 11.6644 5.29199 11.2502 5.29199C10.836 5.29199 10.5002 5.62778 10.5002 6.04199H12.0002ZM10.5002 8.96503C10.5002 9.37924 10.836 9.71503 11.2502 9.71503C11.6644 9.71503 12.0002 9.37924 12.0002 8.96503H10.5002ZM23.2593 6.04199C23.2593 5.62778 22.9235 5.29199 22.5093 5.29199C22.0951 5.29199 21.7593 5.62778 21.7593 6.04199H23.2593ZM21.7593 8.96503C21.7593 9.37924 22.0951 9.71503 22.5093 9.71503C22.9235 9.71503 23.2593 9.37924 23.2593 8.96503H21.7593ZM9.84285 16.9841C9.42863 16.9841 9.09285 17.3199 9.09285 17.7341C9.09285 18.1483 9.42863 18.4841 9.84285 18.4841V16.9841ZM10.5465 18.4841C10.9608 18.4841 11.2965 18.1483 11.2965 17.7341C11.2965 17.3199 10.9608 16.9841 10.5465 16.9841V18.4841ZM14.065 16.9841C13.6508 16.9841 13.315 17.3199 13.315 17.7341C13.315 18.1483 13.6508 18.4841 14.065 18.4841V16.9841ZM14.7687 18.4841C15.1829 18.4841 15.5187 18.1483 15.5187 17.7341C15.5187 17.3199 15.1829 16.9841 14.7687 16.9841V18.4841ZM9.13915 8.25351H24.6204V6.75351H9.13915V8.25351ZM28.0926 11.8881V23.5802H29.5926V11.8881H28.0926ZM24.6204 27.2148H9.13915V28.7148H24.6204V27.2148ZM5.66699 23.5802V11.8881H4.16699V23.5802H5.66699ZM9.13915 27.2148C7.24796 27.2148 5.66699 25.6144 5.66699 23.5802H4.16699C4.16699 26.389 6.36668 28.7148 9.13915 28.7148V27.2148ZM28.0926 23.5802C28.0926 25.6144 26.5116 27.2148 24.6204 27.2148V28.7148C27.3929 28.7148 29.5926 26.389 29.5926 23.5802H28.0926ZM24.6204 8.25351C26.5116 8.25351 28.0926 9.85382 28.0926 11.8881H29.5926C29.5926 9.07926 27.3929 6.75351 24.6204 6.75351V8.25351ZM9.13915 6.75351C6.36668 6.75351 4.16699 9.07926 4.16699 11.8881H5.66699C5.66699 9.85382 7.24796 8.25351 9.13915 8.25351V6.75351ZM10.5002 6.04199V8.96503H12.0002V6.04199H10.5002ZM21.7593 6.04199V8.96503H23.2593V6.04199H21.7593ZM9.84285 18.4841H10.5465V16.9841H9.84285V18.4841ZM14.065 18.4841H14.7687V16.9841H14.065V18.4841ZM4.91699 14.0996H28.8426V12.5996H4.91699V14.0996Z" fill="white"/>
</svg>
