<svg width="57" height="59" viewBox="0 0 57 59" fill="none" xmlns="http://www.w3.org/2000/svg">
<path d="M56.2316 27.773C56.2316 43.1116 44.4113 55.5459 29.8302 55.5459C15.249 55.5459 3.42871 43.1116 3.42871 27.773C3.42871 12.4344 15.249 0 29.8302 0C44.4113 0 56.2316 12.4344 56.2316 27.773Z" fill="#536976"/>
<path d="M56.2316 27.773C56.2316 43.1116 44.4113 55.5459 29.8302 55.5459C15.249 55.5459 3.42871 43.1116 3.42871 27.773C3.42871 12.4344 15.249 0 29.8302 0C44.4113 0 56.2316 12.4344 56.2316 27.773Z" stroke="black"/>
<path d="M26.6211 41.0302L37.6126 29.2935C38.9106 27.9075 38.9106 25.6393 37.6126 24.2533L26.6211 12.5166" stroke="white" stroke-width="1.5" stroke-miterlimit="10" stroke-linecap="round" stroke-linejoin="round"/>
</svg>
